# xmcd CD database file
#
# Track frame offsets:
#	150
#	19282
#	35657
#	58030
#	76487
#	92490
#	110577
#	129310
#	147940
#	161102
#	180085
#	202257
#
# Disc length: 2922 seconds
#
# Revision: 0
# Processed by: cddbd v1.5PL3 Copyright (c) Steve Scherf et al.
# Submitted via: CDex 1.50Beta7
#
DISCID=a30b680c
DTITLE=石原慎一 - I-Sing
DYEAR=1900
DGENRE=
TTITLE0=Non-Stop
TTITLE1=Love Soldier
TTITLE2=Sweet Song For You
TTITLE3=All Or Nothing
TTITLE4=灼熱
TTITLE5=悩ましいほどジェラシー
TTITLE6=Shake It Shake
TTITLE7=舞い飛べ　カルラ！
TTITLE8=Unknown Hero
TTITLE9=幻想地帯
TTITLE10=風に抱かれて
TTITLE11=Endless Desire
EXTD=
EXTT0=
EXTT1=
EXTT2=
EXTT3=
EXTT4=
EXTT5=
EXTT6=
EXTT7=
EXTT8=
EXTT9=
EXTT10=
EXTT11=
PLAYORDER=
